<svg width="18" height="22" viewBox="0 0 18 22" fill="none" xmlns="http://www.w3.org/2000/svg">
<path d="M6.27795 8.24609C6.02312 8.24609 5.81659 8.45577 5.81659 8.71448V17.5669C5.81659 17.8255 6.02312 18.0353 6.27795 18.0353C6.53278 18.0353 6.73931 17.8255 6.73931 17.5669V8.71448C6.73931 8.45577 6.53278 8.24609 6.27795 8.24609Z" fill="#FE2C2C"/>
<path d="M11.7219 8.24609C11.4671 8.24609 11.2606 8.45577 11.2606 8.71448V17.5669C11.2606 17.8255 11.4671 18.0353 11.7219 18.0353C11.9767 18.0353 12.1833 17.8255 12.1833 17.5669V8.71448C12.1833 8.45577 11.9767 8.24609 11.7219 8.24609Z" fill="#FE2C2C"/>
<path d="M2.31033 6.95419V18.4942C2.31033 19.1762 2.55669 19.8168 2.98704 20.2764C3.41542 20.7373 4.01158 20.9989 4.63549 21H13.3645C13.9886 20.9989 14.5848 20.7373 15.013 20.2764C15.4433 19.8168 15.6897 19.1762 15.6897 18.4942V6.95419C16.5452 6.72366 17.0995 5.8846 16.9851 4.99339C16.8705 4.10236 16.1227 3.43583 15.2375 3.43565H12.8754V2.85017C12.8781 2.35782 12.6863 1.88505 12.343 1.53724C11.9997 1.18961 11.5333 0.996036 11.0484 1.00006H6.95165C6.46668 0.996036 6.00028 1.18961 5.65697 1.53724C5.31365 1.88505 5.1219 2.35782 5.1246 2.85017V3.43565H2.76249C1.87727 3.43583 1.12954 4.10236 1.01493 4.99339C0.900487 5.8846 1.45484 6.72366 2.31033 6.95419ZM13.3645 20.0632H4.63549C3.84668 20.0632 3.23304 19.3753 3.23304 18.4942V6.99536H14.767V18.4942C14.767 19.3753 14.1533 20.0632 13.3645 20.0632ZM6.04732 2.85017C6.04425 2.60628 6.13869 2.37154 6.30917 2.19938C6.47948 2.02721 6.71124 1.93262 6.95165 1.93683H11.0484C11.2888 1.93262 11.5205 2.02721 11.6908 2.19938C11.8613 2.37136 11.9557 2.60628 11.9527 2.85017V3.43565H6.04732V2.85017ZM2.76249 4.37242H15.2375C15.6962 4.37242 16.0679 4.74987 16.0679 5.21551C16.0679 5.68114 15.6962 6.05859 15.2375 6.05859H2.76249C2.30384 6.05859 1.93205 5.68114 1.93205 5.21551C1.93205 4.74987 2.30384 4.37242 2.76249 4.37242Z" fill="#FE2C2C" stroke="#FE2C2C" stroke-width="0.5"/>
<path d="M9.00005 8.24609C8.74522 8.24609 8.5387 8.45577 8.5387 8.71448V17.5669C8.5387 17.8255 8.74522 18.0353 9.00005 18.0353C9.25487 18.0353 9.4614 17.8255 9.4614 17.5669V8.71448C9.4614 8.45577 9.25487 8.24609 9.00005 8.24609Z" fill="#FE2C2C"/>
</svg>
