<svg width="24" height="23" viewBox="0 0 24 23" fill="none" xmlns="http://www.w3.org/2000/svg">
<mask id="path-1-outside-1" maskUnits="userSpaceOnUse" x="0" y="0.739136" width="18" height="20" fill="black">
<rect fill="white" y="0.739136" width="18" height="20"/>
<path d="M9.39146 18.3913H2.86958C2.63896 18.3913 2.41777 18.2997 2.2547 18.1366C2.09162 17.9736 2 17.7524 2 17.5218V3.6087C2 3.37808 2.09162 3.1569 2.2547 2.99383C2.41777 2.83075 2.63896 2.73914 2.86958 2.73914H15.0437C15.2744 2.73914 15.4956 2.83075 15.6586 2.99383C15.8217 3.1569 15.9133 3.37808 15.9133 3.6087V10.1304"/>
</mask>
<path d="M9.39146 19.8913C10.2199 19.8913 10.8915 19.2197 10.8915 18.3913C10.8915 17.5629 10.2199 16.8913 9.39146 16.8913V19.8913ZM2 17.5218H0.5H2ZM2.86958 2.73914V1.23914V2.73914ZM15.0437 2.73914V1.23914V2.73914ZM14.4133 10.1304C14.4133 10.9589 15.0849 11.6304 15.9133 11.6304C16.7418 11.6304 17.4133 10.9589 17.4133 10.1304H14.4133ZM9.39146 16.8913H2.86958V19.8913H9.39146V16.8913ZM2.86958 16.8913C3.03677 16.8913 3.19711 16.9577 3.31534 17.076L1.19405 19.1973C1.63843 19.6417 2.24114 19.8913 2.86958 19.8913V16.8913ZM3.31534 17.076C3.43357 17.1942 3.5 17.3545 3.5 17.5218H0.5C0.5 18.1502 0.749658 18.7529 1.19405 19.1973L3.31534 17.076ZM3.5 17.5218V3.6087H0.5V17.5218H3.5ZM3.5 3.6087C3.5 3.77591 3.43357 3.93627 3.31534 4.0545L1.19405 1.93315C0.749659 2.37753 0.5 2.98024 0.5 3.6087H3.5ZM3.31534 4.0545C3.19712 4.17272 3.03677 4.23914 2.86958 4.23914V1.23914C2.24114 1.23914 1.63843 1.48878 1.19405 1.93315L3.31534 4.0545ZM2.86958 4.23914H15.0437V1.23914H2.86958V4.23914ZM15.0437 4.23914C14.8766 4.23914 14.7162 4.17272 14.598 4.0545L16.7193 1.93315C16.2749 1.48878 15.6722 1.23914 15.0437 1.23914V4.23914ZM14.598 4.0545C14.4798 3.93627 14.4133 3.77591 14.4133 3.6087H17.4133C17.4133 2.98024 17.1637 2.37753 16.7193 1.93315L14.598 4.0545ZM14.4133 3.6087V10.1304H17.4133V3.6087H14.4133Z" fill="#6D6D6D" mask="url(#path-1-outside-1)"/>
<path d="M5.47827 4.47826V1" stroke="#6D6D6D" stroke-width="1.5" stroke-linecap="round" stroke-linejoin="round"/>
<path d="M8.95667 4.47826V1" stroke="#6D6D6D" stroke-width="1.5" stroke-linecap="round" stroke-linejoin="round"/>
<path d="M12.435 4.47826V1" stroke="#6D6D6D" stroke-width="1.5" stroke-linecap="round" stroke-linejoin="round"/>
<path d="M21.9916 14.2433L21.9917 14.2433C22.4772 13.7576 22.75 13.0989 22.75 12.4121C22.75 11.7254 22.4772 11.0667 21.9917 10.581C21.984 10.5733 21.9761 10.5657 21.968 10.5583C21.484 10.0826 20.8323 9.81567 20.153 9.81567C19.4663 9.81567 18.8078 10.0884 18.3222 10.574L18.3222 10.574L11.6873 17.2088C11.5826 17.3135 11.5112 17.4468 11.4822 17.592L10.83 20.8529C10.7808 21.0988 10.8578 21.353 11.0351 21.5303C11.2124 21.7076 11.4666 21.7846 11.7125 21.7354L14.9735 21.0832C15.1186 21.0542 15.252 20.9828 15.3567 20.8781L21.9916 14.2433Z" stroke="#6D6D6D" stroke-width="1.5" stroke-linecap="round" stroke-linejoin="round"/>
</svg>
