<svg width="24" height="18" viewBox="0 0 24 18" fill="none" xmlns="http://www.w3.org/2000/svg">
<path d="M14.4741 6.52383C14.4741 6.52383 14.4741 6.52384 14.4741 6.52386L14.4741 6.52383ZM14.4741 6.5239L14.4744 6.52422C14.4744 6.52423 14.4744 6.52423 14.4744 6.52423L14.4741 6.5239ZM14.475 6.52481L14.4749 6.5248L14.475 6.52481ZM14.5348 6.586C15.1324 7.21093 15.471 8.01938 15.4986 8.88448C15.4708 8.02102 15.1303 7.21068 14.5348 6.586ZM12.0004 12.4993C12.2549 12.4993 12.5031 12.472 12.7422 12.4202C12.5031 12.472 12.2549 12.4993 12.0004 12.4993C11.1167 12.4993 10.2856 12.1757 9.64024 11.5834C10.2858 12.1749 11.119 12.4993 12.0004 12.4993ZM16.0004 8.99935C16.0004 7.93027 15.5845 6.92527 14.8285 6.17129L14.1214 6.87831C14.6875 7.44432 15.0004 8.19732 15.0004 8.99931C15.0004 10.6533 13.6544 11.9993 12.0004 11.9993C11.1985 11.9993 10.4455 11.6873 9.87945 11.1203C9.68445 10.9253 9.36743 10.9253 9.17243 11.1203C8.97743 11.3143 8.97743 11.6323 9.17243 11.8273C9.92642 12.5833 10.9314 12.9993 12.0004 12.9993C14.2064 12.9993 16.0004 11.2053 16.0004 8.99935Z" fill="#9098A5" stroke="#9098A5"/>
<path d="M8.56202 9.60881L8.55721 9.60977L8.55721 9.60977L8.55142 9.61093C8.55588 9.61004 8.55938 9.6096 8.56149 9.60939C8.56171 9.60937 8.56192 9.60935 8.56211 9.60933C8.56227 9.61017 8.56242 9.61102 8.56258 9.61186L8.56279 9.61183L8.56202 9.60881ZM8.56216 9.60932C8.56222 9.60932 8.56228 9.60931 8.56234 9.60931C8.56241 9.6093 8.56248 9.6093 8.56254 9.60929C8.56261 9.6093 8.56268 9.60931 8.56274 9.60932L8.56235 9.60939L8.56214 9.60943L8.56216 9.60932ZM8.56333 9.60922C8.56327 9.60922 8.56321 9.60922 8.56314 9.60922L8.56333 9.60922Z" fill="#9098A5" stroke="#9098A5"/>
<path d="M23.3675 9.15246C22.9582 9.61435 21.6735 11.0015 19.8645 12.3637C17.7682 13.9422 15.0361 15.4351 12.1846 15.4973C14.7397 15.441 17.1794 14.2242 19.1058 12.895C21.0877 11.5273 22.5866 9.99823 23.1958 9.33851L23.3675 9.15246ZM23.3028 8.77582L23.1953 8.65967C22.398 7.7984 20.055 5.42551 17.1033 3.8973L17.1028 3.89706L17.1023 3.89738L17.1025 3.89693C17.1027 3.89685 17.1029 3.89675 17.1032 3.89664C20.2225 5.51292 22.6167 8.0158 23.3028 8.77582ZM23.8825 9.3223C24.0404 9.13625 24.0394 8.86325 23.8814 8.67627L6.30547 14.0273C6.18448 14.2753 6.28948 14.5743 6.53848 14.6943C8.33346 15.5613 10.1715 15.9993 12.0005 15.9993C18.1615 15.9993 23.6515 9.5953 23.8825 9.3223Z" fill="#9098A5" stroke="#9098A5"/>
<path d="M0.493256 9.00425L0.0900744 9.28526L0.493574 9.00466L0.669982 9.2295M0.493256 9.00425L4.95277 13.2172C4.95308 13.2174 4.95339 13.2176 4.9537 13.2178L4.95375 13.2178L4.95557 13.219C4.95615 13.2194 4.9561 13.2193 4.95552 13.2191C4.95523 13.219 4.9548 13.2188 4.95424 13.2186C4.95394 13.2185 4.95367 13.2185 4.95345 13.2184C4.95352 13.2185 4.95352 13.2185 4.9534 13.2184C4.95336 13.2184 4.95333 13.2184 4.9533 13.2184C4.95321 13.2184 4.95313 13.2183 4.95305 13.2183C4.95301 13.2183 4.95296 13.2183 4.95292 13.2183L4.95235 13.2185L4.95071 13.2197C4.95063 13.2198 4.95056 13.2199 4.95049 13.2199C4.95007 13.2203 4.95007 13.2204 4.95043 13.2199L4.952 13.2175C4.71691 13.0612 4.48993 12.9014 4.27135 12.7398M0.493256 9.00425L0.500267 8.99937C0.509613 9.01278 0.566865 9.09425 0.669982 9.2295M0.493256 9.00425L0.490223 9.00039L0.494434 8.99581L0.49499 8.99521L0.651716 8.825M0.669982 9.2295C1.10505 9.80013 2.35658 11.328 4.27135 12.7398M0.669982 9.2295L0.752692 9.33492C1.24855 9.96691 2.47673 11.4133 4.27135 12.7398M4.27135 12.7398C4.4898 12.9009 4.71689 13.0604 4.95238 13.2169L0.651716 8.825M0.651716 8.825L0.778246 8.68759C1.36659 8.04864 2.86291 6.51277 4.85184 5.13319C6.83119 3.76026 9.3593 2.49929 12 2.49929C12.522 2.49929 13.0598 2.55109 13.6089 2.65266C13.0551 2.55015 12.5174 2.49926 12 2.49926C9.08221 2.49926 6.27743 4.02237 4.13606 5.63481C2.35372 6.9769 1.08043 8.3432 0.651716 8.825Z" fill="#9098A5" stroke="#9098A5"/>
<mask id="path-5-inside-1" fill="white">
<path d="M20.8534 0.14625C20.6584 -0.0487499 20.3414 -0.0487499 20.1464 0.14625L3.14649 17.1462C2.95149 17.3412 2.95149 17.6582 3.14649 17.8532C3.24451 17.9502 3.37248 17.9993 3.50049 17.9993C3.62851 17.9993 3.75648 17.9503 3.85351 17.8532L20.8534 0.853264C21.0484 0.658264 21.0484 0.341249 20.8534 0.14625Z"/>
</mask>
<path d="M20.8534 0.14625C20.6584 -0.0487499 20.3414 -0.0487499 20.1464 0.14625L3.14649 17.1462C2.95149 17.3412 2.95149 17.6582 3.14649 17.8532C3.24451 17.9502 3.37248 17.9993 3.50049 17.9993C3.62851 17.9993 3.75648 17.9503 3.85351 17.8532L20.8534 0.853264C21.0484 0.658264 21.0484 0.341249 20.8534 0.14625Z" fill="#9098A5"/>
<path d="M20.1464 0.14625L19.4393 -0.560857V-0.560856L20.1464 0.14625ZM3.14649 17.1462L3.8536 17.8533L3.8536 17.8533L3.14649 17.1462ZM3.14649 17.8532L2.43938 18.5604L2.44314 18.5641L3.14649 17.8532ZM3.85351 17.8532L4.56061 18.5604H4.56062L3.85351 17.8532ZM20.8534 0.853264L20.1463 0.146157L20.1463 0.146158L20.8534 0.853264ZM21.5606 -0.560857C20.975 -1.14638 20.0248 -1.14638 19.4393 -0.560857L20.8535 0.853357C20.658 1.04888 20.3419 1.04888 20.1463 0.853357L21.5606 -0.560857ZM19.4393 -0.560856L2.43939 16.4391L3.8536 17.8533L20.8535 0.853356L19.4393 -0.560856ZM2.43939 16.4391C1.85386 17.0246 1.85386 17.9748 2.43939 18.5604L3.8536 17.1461C4.04913 17.3417 4.04913 17.6578 3.8536 17.8533L2.43939 16.4391ZM2.44314 18.5641C2.73398 18.8519 3.11709 18.9993 3.50049 18.9993V16.9993C3.62787 16.9993 3.75503 17.0486 3.84985 17.1424L2.44314 18.5641ZM3.50049 18.9993C3.88276 18.9993 4.26844 18.8525 4.56061 18.5604L3.1464 17.1461C3.24452 17.048 3.37425 16.9993 3.50049 16.9993V18.9993ZM4.56062 18.5604L21.5606 1.56037L20.1463 0.146158L3.1464 17.1461L4.56062 18.5604ZM21.5606 1.56037C22.1461 0.974847 22.1461 0.0246667 21.5606 -0.560857L20.1463 0.853357C19.9508 0.657832 19.9508 0.341682 20.1463 0.146157L21.5606 1.56037Z" fill="#9098A5" mask="url(#path-5-inside-1)"/>
</svg>
